<svg width="1440" height="1024" viewBox="0 0 1440 1024" fill="none" xmlns="http://www.w3.org/2000/svg">
<g filter="url(#filter0_d_124_2)">
<path fill-rule="evenodd" clip-rule="evenodd" d="M219.426 -36.383C285.39 -40.8105 368.57 -70.972 409.377 -18.4252C450.413 34.4181 386.004 106.409 382.395 173.475C379.187 233.082 429.121 301.037 389.786 345.584C350.386 390.205 278.373 352.648 219.426 358.038C148.539 364.52 73.0964 421.608 15.1595 379.838C-44.2758 336.988 -44.0177 246.857 -36.5718 173.475C-29.8954 107.675 2.3033 47.1626 53.1438 5.48549C99.256 -32.3156 160.174 -32.4059 219.426 -36.383Z" fill="#EB6AA4"/>
<path fill-rule="evenodd" clip-rule="evenodd" d="M683.593 337.821C777.881 237.896 736.574 85.0887 856.057 3.34839C929.592 -46.9576 1046.36 4.69069 1098.48 53.9893C1156.93 109.269 1090.12 220.167 1145.79 277.355C1192.39 325.236 1386.78 265.534 1369.29 332.22C1343.43 430.847 1057.37 454.903 1074.69 548.512C1096.01 663.792 1430.42 590.851 1438.99 708.942C1445.57 799.481 1175.67 706.329 1091.66 782.286C1011.59 854.686 1145.38 971.045 1067.51 1044.85C1006.11 1103.03 895.056 1051.39 808.629 1050.52C736.669 1049.79 669.245 1038.79 596.838 1040.08C514.019 1041.56 420.183 1082.2 348.286 1058.74C278.017 1035.81 258.674 966.113 217.817 916.414C177.133 866.926 117.847 825.416 105.968 763.983C94.1006 702.605 98.3011 627.36 151.06 571.163C210.326 508.036 320.774 496.396 400.759 449.985C447.528 422.848 474.058 374.385 525.025 354.172C575.812 334.031 648.945 374.541 683.593 337.821Z" fill="#FF5A40"/>
</g>
<defs>
<filter id="filter0_d_124_2" x="-44" y="-49" width="1487.11" height="1129.48" filterUnits="userSpaceOnUse" color-interpolation-filters="sRGB">
<feFlood flood-opacity="0" result="BackgroundImageFix"/>
<feColorMatrix in="SourceAlpha" type="matrix" values="0 0 0 0 0 0 0 0 0 0 0 0 0 0 0 0 0 0 127 0" result="hardAlpha"/>
<feOffset dy="4"/>
<feGaussianBlur stdDeviation="2"/>
<feComposite in2="hardAlpha" operator="out"/>
<feColorMatrix type="matrix" values="0 0 0 0 0 0 0 0 0 0 0 0 0 0 0 0 0 0 0.25 0"/>
<feBlend mode="normal" in2="BackgroundImageFix" result="effect1_dropShadow_124_2"/>
<feBlend mode="normal" in="SourceGraphic" in2="effect1_dropShadow_124_2" result="shape"/>
</filter>
</defs>
</svg>
