<svg width="1440" height="1024" viewBox="0 0 1440 1024" fill="none" xmlns="http://www.w3.org/2000/svg">
<path fill-rule="evenodd" clip-rule="evenodd" d="M837.018 134.245C939.986 191.943 1074.3 139.303 1184.9 186.327C1314.88 241.587 1510.88 319.897 1506.36 418.827C1501 536.064 1214.41 507.433 1165.44 612.467C1123.71 701.97 1302.51 821.825 1274.55 916.052C1243.72 1019.96 1163.3 1165.47 1008.93 1139.92C827.024 1109.82 791.54 890.196 626.68 808.828C515.466 753.938 366.663 839.689 266.037 773.265C169.406 709.478 205.121 604.112 185.257 517.442C168.097 442.57 144.788 368.783 157.124 298.069C170.257 222.791 223.823 164.514 258.733 96.2607C316.526 -16.7353 252.547 -248.101 430.492 -236.413C628.557 -223.404 662.733 36.5826 837.018 134.245Z" fill="#FF8673"/>
<path fill-rule="evenodd" clip-rule="evenodd" d="M79.3087 -12.7782C158.901 -13.6021 184.752 -165.698 263.828 -156.608C326.317 -149.425 301.431 -40.0177 329.972 16.0345C360.365 75.7218 475.772 127.809 436.153 181.815C384.312 252.483 237.67 151.771 181.216 218.812C123.373 287.501 245.353 418.384 182.736 482.752C135.397 531.415 50.7724 449.886 -1.88705 407.036C-43.8287 372.907 -50.6402 314.011 -80.2434 268.761C-104.657 231.445 -143.666 206.343 -160.262 164.954C-180.07 115.556 -193.35 62.6877 -183.875 10.3168C-172.841 -50.6748 -164.516 -147.395 -102.771 -152.813C-24.9205 -159.645 1.16272 -11.9692 79.3087 -12.7782Z" fill="#EB6AA4"/>
</svg>
