<svg width="1440" height="1024" viewBox="0 0 1440 1024" fill="none" xmlns="http://www.w3.org/2000/svg">
<path fill-rule="evenodd" clip-rule="evenodd" d="M567.863 -75.6567C665.518 -82.8638 775.193 -109.076 859.725 -78.5553C946.646 -47.172 1004.93 20.0907 1002.95 81.4332C1000.72 150.47 865.357 195.399 848.676 263.703C840.845 295.772 922.747 311.857 939.145 342.713C957.892 377.987 983.578 421.952 949.024 452.519C913.407 484.026 810.185 459.324 772.646 490C712.33 539.289 776.021 633.52 689.08 664.938C618.27 690.526 551.702 595.306 469.57 599.521C340.524 606.145 245.04 710.788 118.444 694.225C15.9751 680.819 -1.48488 591.242 -41.9737 532.596C-79.6013 478.095 -102.935 421.2 -110.715 362.302C-118.389 304.202 -163.65 225.285 -87.2337 189.942C16.717 141.865 205.025 227.278 299.592 172.536C384.108 123.612 241.944 21.572 305.999 -37.689C355.749 -83.7152 477.788 -69.009 567.863 -75.6567Z" fill="#FF8673"/>
<path fill-rule="evenodd" clip-rule="evenodd" d="M926.929 420.43C1051.49 370.188 1049.4 185.201 1176.15 141.386C1286.95 103.083 1382.13 184.667 1467.36 233.605C1552.86 282.702 1637.81 338.836 1669.14 424.471C1700.05 508.946 1685.25 610.049 1638.64 701.739C1595.82 785.973 1493.43 839.464 1421.41 911.786C1352.94 980.547 1310.71 1065.42 1224.46 1117.67C1130.45 1174.61 1006.15 1250.97 915.045 1218.51C812.68 1182.05 883.458 1012.73 791.101 963.291C693.526 911.064 501.685 1026.93 424.143 955.758C356.809 893.952 466.183 775.14 485.163 682.473C504.879 586.214 436.931 458.793 538.238 398.701C658.337 327.461 796.696 472.963 926.929 420.43Z" fill="#EB6AA4"/>
</svg>
