<svg width="1440" height="1024" viewBox="0 0 1440 1024" fill="none" xmlns="http://www.w3.org/2000/svg">
<path fill-rule="evenodd" clip-rule="evenodd" d="M917.462 209.571C1008.57 253.036 1090.15 145.535 1192.52 146.761C1306.35 148.125 1502.2 138.229 1531.47 216.929C1571.35 324.116 1365.27 377.306 1313.41 471.724C1293.75 507.515 1290.52 555.945 1325.16 592.534C1423.02 695.89 1698.45 754.009 1686.89 866.172C1677.67 955.589 1393.42 822.174 1296.19 873.555C1203.52 922.532 1305.94 1065.18 1214.98 1115.56C1138.14 1158.12 1002.8 1101.91 895.4 1095.55C785.699 1089.06 667.94 1121.32 569.225 1077.31C466.396 1031.47 452.723 931.819 377.607 864.726C314.384 808.257 228.352 767.239 161.131 712.81C81.9948 648.732 -88.1881 583.622 -56.4288 513.281C-14.3305 420.041 287.387 479.079 310.966 380.952C336.955 272.794 -6.25246 166.835 50.667 67.5778C98.8599 -16.4618 350.151 144.585 468.399 106.417C580.81 70.1344 501.13 -150.521 632.721 -120.293C806.224 -80.438 762.42 135.607 917.462 209.571Z" fill="#FF8673"/>
<path fill-rule="evenodd" clip-rule="evenodd" d="M142.736 -88.8104C181.163 -93.2238 231.822 -130.549 255.848 -100.237C284.04 -64.6701 207.307 -0.922256 238.516 32.0281C295.925 92.6395 448.901 40.7729 466.669 122.344C481.513 190.494 316.415 134.026 272.544 188.249C225.883 245.922 291.893 351.661 239.027 403.706C191.559 450.436 88.4713 462.872 43.5009 413.733C-11.6017 353.524 84.5188 234.151 29.055 174.275C-29.7584 110.781 -192.701 209.836 -221.098 128.081C-246.785 54.131 -95.1734 43.1204 -33.0445 -4.50694C-4.42409 -26.4471 12.6575 -60.446 45.1737 -76.0406C75.358 -90.5168 109.479 -84.9907 142.736 -88.8104Z" fill="#EB6AA4"/>
</svg>
