<svg width="1389" height="1003" viewBox="0 0 1389 1003" fill="none" xmlns="http://www.w3.org/2000/svg">
    <path fill-rule="evenodd" clip-rule="evenodd" d="M431.621 383.826C494.679 393.295 556.397 395.571 619.583 404.292C703.441 415.866 821.158 378.291 867.064 443.926C915.507 513.189 799.375 601.963 814.612 683.138C828.659 757.973 937.12 796.644 947.414 871.994C957.703 947.304 916.333 1022.62 869.527 1085.11C821.506 1149.22 760.191 1218.32 677.091 1232.87C591.757 1247.82 516.276 1179.72 431.621 1161.8C366.47 1148 296.087 1164.5 235.094 1139.31C173.568 1113.89 103.303 1078.06 84.5335 1018.43C64.2649 954.043 170.939 884.654 136.363 825.655C82.714 734.111 -156.988 746.594 -134.518 644.654C-112.361 544.134 108.344 656.189 189.258 585.68C254.106 529.171 145.398 398.181 211.614 343.032C267.793 296.243 356.851 372.599 431.621 383.826Z" fill="#FF5A40"/>
    <path fill-rule="evenodd" clip-rule="evenodd" d="M1043.45 162.601C1107.64 176.939 1161.75 76.9846 1223.85 97.1244C1281.68 115.878 1264.96 196.139 1293.76 243.773C1321.15 289.07 1384.72 318.868 1388.84 369.965C1392.96 421.153 1318.02 455.602 1314.96 506.846C1308.01 623.535 1441.39 756.203 1360.27 849.134C1294.73 924.221 1136.89 865.41 1043.45 817.907C959.257 775.103 954.341 668.709 886.042 608.04C841.859 568.793 738.223 585.272 721.757 532.148C703.452 473.095 839.101 426.471 812.247 369.965C757.464 254.69 523.013 230.339 519.034 105.58C516.152 15.2352 697.818 -8.61202 800.529 2.55577C902.933 13.6903 943.478 140.267 1043.45 162.601Z" fill="#EB6AA4"/>
</svg>